TITLE ""
FILE "LR_black_phrase_A10.mp3" MP3
  TRACK 01 AUDIO
    TITLE "LR_black_phrase_A10_001"
    INDEX 01 00:00:00
  TRACK 02 AUDIO
    TITLE "LR_black_phrase_A10_002"
    INDEX 01 00:00:14
  TRACK 03 AUDIO
    TITLE "LR_black_phrase_A10_003"
    INDEX 01 00:01:37
  TRACK 04 AUDIO
    TITLE "LR_black_phrase_A10_004"
    INDEX 01 00:01:70
  TRACK 05 AUDIO
    TITLE "LR_black_phrase_A10_005"
    INDEX 01 00:04:36
  TRACK 06 AUDIO
    TITLE "LR_black_phrase_A10_006"
    INDEX 01 00:05:37
  TRACK 07 AUDIO
    TITLE "LR_black_phrase_A10_007"
    INDEX 01 00:07:59
  TRACK 08 AUDIO
    TITLE "LR_black_phrase_A10_008"
    INDEX 01 00:08:24
  TRACK 09 AUDIO
    TITLE "LR_black_phrase_A10_009"
    INDEX 01 00:11:02
  TRACK 10 AUDIO
    TITLE "LR_black_phrase_A10_010"
    INDEX 01 00:11:30
  TRACK 11 AUDIO
    TITLE "LR_black_phrase_A10_011"
    INDEX 01 00:14:08
  TRACK 12 AUDIO
    TITLE "LR_black_phrase_A10_012"
    INDEX 01 00:15:14
  TRACK 13 AUDIO
    TITLE "LR_black_phrase_A10_013"
    INDEX 01 00:16:45
  TRACK 14 AUDIO
    TITLE "LR_black_phrase_A10_014"
    INDEX 01 00:17:11
  TRACK 15 AUDIO
    TITLE "LR_black_phrase_A10_015"
    INDEX 01 00:18:65
  TRACK 16 AUDIO
    TITLE "LR_black_phrase_A10_016"
    INDEX 01 00:19:64
  TRACK 17 AUDIO
    TITLE "LR_black_phrase_A10_017"
    INDEX 01 00:22:43
  TRACK 18 AUDIO
    TITLE "LR_black_phrase_A10_018"
    INDEX 01 00:23:07
  TRACK 19 AUDIO
    TITLE "LR_black_phrase_A10_019"
    INDEX 01 00:25:47
  TRACK 20 AUDIO
    TITLE "LR_black_phrase_A10_020"
    INDEX 01 00:25:75
  TRACK 21 AUDIO
    TITLE "LR_black_phrase_A10_021"
    INDEX 01 00:28:40
  TRACK 22 AUDIO
    TITLE "LR_black_phrase_A10_022"
    INDEX 01 00:29:43
  TRACK 23 AUDIO
    TITLE "LR_black_phrase_A10_023"
    INDEX 01 00:30:47
  TRACK 24 AUDIO
    TITLE "LR_black_phrase_A10_024"
    INDEX 01 00:31:11
  TRACK 25 AUDIO
    TITLE "LR_black_phrase_A10_025"
    INDEX 01 00:32:34
  TRACK 26 AUDIO
    TITLE "LR_black_phrase_A10_026"
    INDEX 01 00:33:33
  TRACK 27 AUDIO
    TITLE "LR_black_phrase_A10_027"
    INDEX 01 00:36:39
  TRACK 28 AUDIO
    TITLE "LR_black_phrase_A10_028"
    INDEX 01 00:37:04
  TRACK 29 AUDIO
    TITLE "LR_black_phrase_A10_029"
    INDEX 01 00:39:75
  TRACK 30 AUDIO
    TITLE "LR_black_phrase_A10_030"
    INDEX 01 00:40:31
  TRACK 31 AUDIO
    TITLE "LR_black_phrase_A10_031"
    INDEX 01 00:43:28
  TRACK 32 AUDIO
    TITLE "LR_black_phrase_A10_032"
    INDEX 01 00:44:27
  TRACK 33 AUDIO
    TITLE "LR_black_phrase_A10_033"
    INDEX 01 00:45:44
  TRACK 34 AUDIO
    TITLE "LR_black_phrase_A10_034"
    INDEX 01 00:46:06
  TRACK 35 AUDIO
    TITLE "LR_black_phrase_A10_035"
    INDEX 01 00:48:50
  TRACK 36 AUDIO
    TITLE "LR_black_phrase_A10_036"
    INDEX 01 00:49:48
  TRACK 37 AUDIO
    TITLE "LR_black_phrase_A10_037"
    INDEX 01 00:51:59
  TRACK 38 AUDIO
    TITLE "LR_black_phrase_A10_038"
    INDEX 01 00:52:17
  TRACK 39 AUDIO
    TITLE "LR_black_phrase_A10_039"
    INDEX 01 00:54:45
  TRACK 40 AUDIO
    TITLE "LR_black_phrase_A10_040"
    INDEX 01 00:54:65
  TRACK 41 AUDIO
    TITLE "LR_black_phrase_A10_041"
    INDEX 01 00:57:18
  TRACK 42 AUDIO
    TITLE "LR_black_phrase_A10_042"
    INDEX 01 00:58:14
  TRACK 43 AUDIO
    TITLE "LR_black_phrase_A10_043"
    INDEX 01 00:59:44
  TRACK 44 AUDIO
    TITLE "LR_black_phrase_A10_044"
    INDEX 01 01:00:03
  TRACK 45 AUDIO
    TITLE "LR_black_phrase_A10_045"
    INDEX 01 01:01:37
  TRACK 46 AUDIO
    TITLE "LR_black_phrase_A10_046"
    INDEX 01 01:02:37
  TRACK 47 AUDIO
    TITLE "LR_black_phrase_A10_047"
    INDEX 01 01:04:75
  TRACK 48 AUDIO
    TITLE "LR_black_phrase_A10_048"
    INDEX 01 01:05:33
  TRACK 49 AUDIO
    TITLE "LR_black_phrase_A10_049"
    INDEX 01 01:07:69
  TRACK 50 AUDIO
    TITLE "LR_black_phrase_A10_050"
    INDEX 01 01:08:14
  TRACK 51 AUDIO
    TITLE "LR_black_phrase_A10_051"
    INDEX 01 01:10:50
  TRACK 52 AUDIO
    TITLE "LR_black_phrase_A10_052"
    INDEX 01 01:11:44
  TRACK 53 AUDIO
    TITLE "LR_black_phrase_A10_053"
    INDEX 01 01:12:71
  TRACK 54 AUDIO
    TITLE "LR_black_phrase_A10_054"
    INDEX 01 01:13:33
  TRACK 55 AUDIO
    TITLE "LR_black_phrase_A10_055"
    INDEX 01 01:16:60
  TRACK 56 AUDIO
    TITLE "LR_black_phrase_A10_056"
    INDEX 01 01:17:62
  TRACK 57 AUDIO
    TITLE "LR_black_phrase_A10_057"
    INDEX 01 01:19:35
  TRACK 58 AUDIO
    TITLE "LR_black_phrase_A10_058"
    INDEX 01 01:19:69
  TRACK 59 AUDIO
    TITLE "LR_black_phrase_A10_059"
    INDEX 01 01:22:45
  TRACK 60 AUDIO
    TITLE "LR_black_phrase_A10_060"
    INDEX 01 01:22:67
  TRACK 61 AUDIO
    TITLE "LR_black_phrase_A10_061"
    INDEX 01 01:25:44
  TRACK 62 AUDIO
    TITLE "LR_black_phrase_A10_062"
    INDEX 01 01:26:49
  TRACK 63 AUDIO
    TITLE "LR_black_phrase_A10_063"
    INDEX 01 01:27:60
  TRACK 64 AUDIO
    TITLE "LR_black_phrase_A10_064"
    INDEX 01 01:28:21
  TRACK 65 AUDIO
    TITLE "LR_black_phrase_A10_065"
    INDEX 01 01:31:07
  TRACK 66 AUDIO
    TITLE "LR_black_phrase_A10_066"
    INDEX 01 01:32:03
  TRACK 67 AUDIO
    TITLE "LR_black_phrase_A10_067"
    INDEX 01 01:34:43
  TRACK 68 AUDIO
    TITLE "LR_black_phrase_A10_068"
    INDEX 01 01:35:05
  TRACK 69 AUDIO
    TITLE "LR_black_phrase_A10_069"
    INDEX 01 01:37:45
  TRACK 70 AUDIO
    TITLE "LR_black_phrase_A10_070"
    INDEX 01 01:38:01
  TRACK 71 AUDIO
    TITLE "LR_black_phrase_A10_071"
    INDEX 01 01:40:39
  TRACK 72 AUDIO
    TITLE "LR_black_phrase_A10_072"
    INDEX 01 01:41:45
  TRACK 73 AUDIO
    TITLE "LR_black_phrase_A10_073"
    INDEX 01 01:42:62
  TRACK 74 AUDIO
    TITLE "LR_black_phrase_A10_074"
    INDEX 01 01:43:26
  TRACK 75 AUDIO
    TITLE "LR_black_phrase_A10_075"
    INDEX 01 01:47:26
  TRACK 76 AUDIO
    TITLE "LR_black_phrase_A10_076"
    INDEX 01 01:48:17
  TRACK 77 AUDIO
    TITLE "LR_black_phrase_A10_077"
    INDEX 01 01:50:06
  TRACK 78 AUDIO
    TITLE "LR_black_phrase_A10_078"
    INDEX 01 01:50:44
  TRACK 79 AUDIO
    TITLE "LR_black_phrase_A10_079"
    INDEX 01 01:52:17
  TRACK 80 AUDIO
    TITLE "LR_black_phrase_A10_080"
    INDEX 01 01:52:49
  TRACK 81 AUDIO
    TITLE "LR_black_phrase_A10_081"
    INDEX 01 01:54:22
  TRACK 82 AUDIO
    TITLE "LR_black_phrase_A10_082"
    INDEX 01 01:55:29
  TRACK 83 AUDIO
    TITLE "LR_black_phrase_A10_083"
    INDEX 01 01:56:50
  TRACK 84 AUDIO
    TITLE "LR_black_phrase_A10_084"
    INDEX 01 01:57:16
  TRACK 85 AUDIO
    TITLE "LR_black_phrase_A10_085"
    INDEX 01 02:00:23
  TRACK 86 AUDIO
    TITLE "LR_black_phrase_A10_086"
    INDEX 01 02:01:20
  TRACK 87 AUDIO
    TITLE "LR_black_phrase_A10_087"
    INDEX 01 02:03:68
  TRACK 88 AUDIO
    TITLE "LR_black_phrase_A10_088"
    INDEX 01 02:04:34
  TRACK 89 AUDIO
    TITLE "LR_black_phrase_A10_089"
    INDEX 01 02:07:19
  TRACK 90 AUDIO
    TITLE "LR_black_phrase_A10_090"
    INDEX 01 02:07:48
  TRACK 91 AUDIO
    TITLE "LR_black_phrase_A10_091"
    INDEX 01 02:10:33
  TRACK 92 AUDIO
    TITLE "LR_black_phrase_A10_092"
    INDEX 01 02:11:36
  TRACK 93 AUDIO
    TITLE "LR_black_phrase_A10_093"
    INDEX 01 02:12:47
  TRACK 94 AUDIO
    TITLE "LR_black_phrase_A10_094"
    INDEX 01 02:13:06
  TRACK 95 AUDIO
    TITLE "LR_black_phrase_A10_095"
    INDEX 01 02:15:28
  TRACK 96 AUDIO
    TITLE "LR_black_phrase_A10_096"
    INDEX 01 02:16:24
  TRACK 97 AUDIO
    TITLE "LR_black_phrase_A10_097"
    INDEX 01 02:17:70
  TRACK 98 AUDIO
    TITLE "LR_black_phrase_A10_098"
    INDEX 01 02:18:32
  TRACK 99 AUDIO
    TITLE "LR_black_phrase_A10_099"
    INDEX 01 02:20:12
  TRACK 100 AUDIO
    TITLE "LR_black_phrase_A10_100"
    INDEX 01 02:20:35
  TRACK 101 AUDIO
    TITLE "LR_black_phrase_A10_101"
    INDEX 01 02:22:14
  TRACK 102 AUDIO
    TITLE "LR_black_phrase_A10_102"
    INDEX 01 02:23:10
  TRACK 103 AUDIO
    TITLE "LR_black_phrase_A10_103"
    INDEX 01 02:24:43
  TRACK 104 AUDIO
    TITLE "LR_black_phrase_A10_104"
    INDEX 01 02:25:03
  TRACK 105 AUDIO
    TITLE "LR_black_phrase_A10_105"
    INDEX 01 02:27:39
  TRACK 106 AUDIO
    TITLE "LR_black_phrase_A10_106"
    INDEX 01 02:28:38
  TRACK 107 AUDIO
    TITLE "LR_black_phrase_A10_107"
    INDEX 01 02:30:33
  TRACK 108 AUDIO
    TITLE "LR_black_phrase_A10_108"
    INDEX 01 02:30:69
  TRACK 109 AUDIO
    TITLE "LR_black_phrase_A10_109"
    INDEX 01 02:33:12
  TRACK 110 AUDIO
    TITLE "LR_black_phrase_A10_110"
    INDEX 01 02:33:36
  TRACK 111 AUDIO
    TITLE "LR_black_phrase_A10_111"
    INDEX 01 02:35:48
  TRACK 112 AUDIO
    TITLE "LR_black_phrase_A10_112"
    INDEX 01 02:36:54
  TRACK 113 AUDIO
    TITLE "LR_black_phrase_A10_113"
    INDEX 01 02:38:06
  TRACK 114 AUDIO
    TITLE "LR_black_phrase_A10_114"
    INDEX 01 02:38:41
  TRACK 115 AUDIO
    TITLE "LR_black_phrase_A10_115"
    INDEX 01 02:41:10
  TRACK 116 AUDIO
    TITLE "LR_black_phrase_A10_116"
    INDEX 01 02:42:09
  TRACK 117 AUDIO
    TITLE "LR_black_phrase_A10_117"
    INDEX 01 02:44:20
  TRACK 118 AUDIO
    TITLE "LR_black_phrase_A10_118"
    INDEX 01 02:44:53
  TRACK 119 AUDIO
    TITLE "LR_black_phrase_A10_119"
    INDEX 01 02:46:70
  TRACK 120 AUDIO
    TITLE "LR_black_phrase_A10_120"
    INDEX 01 02:47:16
  TRACK 121 AUDIO
    TITLE "LR_black_phrase_A10_121"
    INDEX 01 02:49:31
  TRACK 122 AUDIO
    TITLE "LR_black_phrase_A10_122"
    INDEX 01 02:50:34
  TRACK 123 AUDIO
    TITLE "LR_black_phrase_A10_123"
    INDEX 01 02:51:59
  TRACK 124 AUDIO
    TITLE "LR_black_phrase_A10_124"
    INDEX 01 02:52:23
  TRACK 125 AUDIO
    TITLE "LR_black_phrase_A10_125"
    INDEX 01 02:54:24
  TRACK 126 AUDIO
    TITLE "LR_black_phrase_A10_126"
    INDEX 01 02:55:24
  TRACK 127 AUDIO
    TITLE "LR_black_phrase_A10_127"
    INDEX 01 02:57:13
  TRACK 128 AUDIO
    TITLE "LR_black_phrase_A10_128"
    INDEX 01 02:57:50
  TRACK 129 AUDIO
    TITLE "LR_black_phrase_A10_129"
    INDEX 01 02:59:39
  TRACK 130 AUDIO
    TITLE "LR_black_phrase_A10_130"
    INDEX 01 02:59:70
  TRACK 131 AUDIO
    TITLE "LR_black_phrase_A10_131"
    INDEX 01 03:01:59
  TRACK 132 AUDIO
    TITLE "LR_black_phrase_A10_132"
    INDEX 01 03:02:67
  TRACK 133 AUDIO
    TITLE "LR_black_phrase_A10_133"
    INDEX 01 03:03:72
  TRACK 134 AUDIO
    TITLE "LR_black_phrase_A10_134"
    INDEX 01 03:04:38
  TRACK 135 AUDIO
    TITLE "LR_black_phrase_A10_135"
    INDEX 01 03:07:13
  TRACK 136 AUDIO
    TITLE "LR_black_phrase_A10_136"
    INDEX 01 03:08:12
  TRACK 137 AUDIO
    TITLE "LR_black_phrase_A10_137"
    INDEX 01 03:09:67
  TRACK 138 AUDIO
    TITLE "LR_black_phrase_A10_138"
    INDEX 01 03:10:31
  TRACK 139 AUDIO
    TITLE "LR_black_phrase_A10_139"
    INDEX 01 03:12:14
  TRACK 140 AUDIO
    TITLE "LR_black_phrase_A10_140"
    INDEX 01 03:12:44
  TRACK 141 AUDIO
    TITLE "LR_black_phrase_A10_141"
    INDEX 01 03:14:27
  TRACK 142 AUDIO
    TITLE "LR_black_phrase_A10_142"
    INDEX 01 03:15:30
  TRACK 143 AUDIO
    TITLE "LR_black_phrase_A10_143"
    INDEX 01 03:16:45
  TRACK 144 AUDIO
    TITLE "LR_black_phrase_A10_144"
    INDEX 01 03:17:11
  TRACK 145 AUDIO
    TITLE "LR_black_phrase_A10_145"
    INDEX 01 03:19:71
  TRACK 146 AUDIO
    TITLE "LR_black_phrase_A10_146"
    INDEX 01 03:20:73
  TRACK 147 AUDIO
    TITLE "LR_black_phrase_A10_147"
    INDEX 01 03:23:41
  TRACK 148 AUDIO
    TITLE "LR_black_phrase_A10_148"
    INDEX 01 03:24:06
  TRACK 149 AUDIO
    TITLE "LR_black_phrase_A10_149"
    INDEX 01 03:26:10
  TRACK 150 AUDIO
    TITLE "LR_black_phrase_A10_150"
    INDEX 01 03:26:40
  TRACK 151 AUDIO
    TITLE "LR_black_phrase_A10_151"
    INDEX 01 03:28:47
  TRACK 152 AUDIO
    TITLE "LR_black_phrase_A10_152"
    INDEX 01 03:29:46
  TRACK 153 AUDIO
    TITLE "LR_black_phrase_A10_153"
    INDEX 01 03:30:71
  TRACK 154 AUDIO
    TITLE "LR_black_phrase_A10_154"
    INDEX 01 03:31:33
  TRACK 155 AUDIO
    TITLE "LR_black_phrase_A10_155"
    INDEX 01 03:34:16
  TRACK 156 AUDIO
    TITLE "LR_black_phrase_A10_156"
    INDEX 01 03:35:15
  TRACK 157 AUDIO
    TITLE "LR_black_phrase_A10_157"
    INDEX 01 03:37:08
  TRACK 158 AUDIO
    TITLE "LR_black_phrase_A10_158"
    INDEX 01 03:37:42
  TRACK 159 AUDIO
    TITLE "LR_black_phrase_A10_159"
    INDEX 01 03:39:60
  TRACK 160 AUDIO
    TITLE "LR_black_phrase_A10_160"
    INDEX 01 03:40:07
  TRACK 161 AUDIO
    TITLE "LR_black_phrase_A10_161"
    INDEX 01 03:42:27
  TRACK 162 AUDIO
    TITLE "LR_black_phrase_A10_162"
    INDEX 01 03:43:25
  TRACK 163 AUDIO
    TITLE "LR_black_phrase_A10_163"
    INDEX 01 03:44:34
  TRACK 164 AUDIO
    TITLE "LR_black_phrase_A10_164"
    INDEX 01 03:44:69
  TRACK 165 AUDIO
    TITLE "LR_black_phrase_A10_165"
    INDEX 01 03:46:15
  TRACK 166 AUDIO
    TITLE "LR_black_phrase_A10_166"
    INDEX 01 03:47:13
  TRACK 167 AUDIO
    TITLE "LR_black_phrase_A10_167"
    INDEX 01 03:50:07
  TRACK 168 AUDIO
    TITLE "LR_black_phrase_A10_168"
    INDEX 01 03:50:56
  TRACK 169 AUDIO
    TITLE "LR_black_phrase_A10_169"
    INDEX 01 03:54:05
  TRACK 170 AUDIO
    TITLE "LR_black_phrase_A10_170"
    INDEX 01 03:54:30
  TRACK 171 AUDIO
    TITLE "LR_black_phrase_A10_171"
    INDEX 01 03:57:56
  TRACK 172 AUDIO
    TITLE "LR_black_phrase_A10_172"
    INDEX 01 03:58:61
  TRACK 173 AUDIO
    TITLE "LR_black_phrase_A10_173"
    INDEX 01 03:59:73
  TRACK 174 AUDIO
    TITLE "LR_black_phrase_A10_174"
    INDEX 01 04:00:33
  TRACK 175 AUDIO
    TITLE "LR_black_phrase_A10_175"
    INDEX 01 04:03:45
  TRACK 176 AUDIO
    TITLE "LR_black_phrase_A10_176"
    INDEX 01 04:04:46
  TRACK 177 AUDIO
    TITLE "LR_black_phrase_A10_177"
    INDEX 01 04:07:11
  TRACK 178 AUDIO
    TITLE "LR_black_phrase_A10_178"
    INDEX 01 04:07:45
  TRACK 179 AUDIO
    TITLE "LR_black_phrase_A10_179"
    INDEX 01 04:10:16
  TRACK 180 AUDIO
    TITLE "LR_black_phrase_A10_180"
    INDEX 01 04:10:35
  TRACK 181 AUDIO
    TITLE "LR_black_phrase_A10_181"
    INDEX 01 04:13:04
  TRACK 182 AUDIO
    TITLE "LR_black_phrase_A10_182"
    INDEX 01 04:14:06
  TRACK 183 AUDIO
    TITLE "LR_black_phrase_A10_183"
    INDEX 01 04:15:40
  TRACK 184 AUDIO
    TITLE "LR_black_phrase_A10_184"
    INDEX 01 04:16:06
  TRACK 185 AUDIO
    TITLE "LR_black_phrase_A10_185"
    INDEX 01 04:19:75
  TRACK 186 AUDIO
    TITLE "LR_black_phrase_A10_186"
    INDEX 01 04:20:73
  TRACK 187 AUDIO
    TITLE "LR_black_phrase_A10_187"
    INDEX 01 04:23:73
  TRACK 188 AUDIO
    TITLE "LR_black_phrase_A10_188"
    INDEX 01 04:24:27
  TRACK 189 AUDIO
    TITLE "LR_black_phrase_A10_189"
    INDEX 01 04:27:12
  TRACK 190 AUDIO
    TITLE "LR_black_phrase_A10_190"
    INDEX 01 04:27:36
  TRACK 191 AUDIO
    TITLE "LR_black_phrase_A10_191"
    INDEX 01 04:30:20
  TRACK 192 AUDIO
    TITLE "LR_black_phrase_A10_192"
    INDEX 01 04:31:26
  TRACK 193 AUDIO
    TITLE "LR_black_phrase_A10_193"
    INDEX 01 04:32:35
  TRACK 194 AUDIO
    TITLE "LR_black_phrase_A10_194"
    INDEX 01 04:33:01
  TRACK 195 AUDIO
    TITLE "LR_black_phrase_A10_195"
    INDEX 01 04:35:27
  TRACK 196 AUDIO
    TITLE "LR_black_phrase_A10_196"
    INDEX 01 04:36:25
  TRACK 197 AUDIO
    TITLE "LR_black_phrase_A10_197"
    INDEX 01 04:38:59
  TRACK 198 AUDIO
    TITLE "LR_black_phrase_A10_198"
    INDEX 01 04:39:23
  TRACK 199 AUDIO
    TITLE "LR_black_phrase_A10_199"
    INDEX 01 04:41:38
  TRACK 200 AUDIO
    TITLE "LR_black_phrase_A10_200"
    INDEX 01 04:41:69
  TRACK 201 AUDIO
    TITLE "LR_black_phrase_A10_201"
    INDEX 01 04:44:09
  TRACK 202 AUDIO
    TITLE "LR_black_phrase_A10_202"
    INDEX 01 04:45:14
  TRACK 203 AUDIO
    TITLE "LR_black_phrase_A10_203"
    INDEX 01 04:46:15
  TRACK 204 AUDIO
    TITLE "LR_black_phrase_A10_204"
    INDEX 01 04:46:51
  TRACK 205 AUDIO
    TITLE "LR_black_phrase_A10_205"
    INDEX 01 04:48:06
  TRACK 206 AUDIO
    TITLE "LR_black_phrase_A10_206"
    INDEX 01 04:49:06
  TRACK 207 AUDIO
    TITLE "LR_black_phrase_A10_207"
    INDEX 01 04:51:11
  TRACK 208 AUDIO
    TITLE "LR_black_phrase_A10_208"
    INDEX 01 04:51:48
  TRACK 209 AUDIO
    TITLE "LR_black_phrase_A10_209"
    INDEX 01 04:53:37
  TRACK 210 AUDIO
    TITLE "LR_black_phrase_A10_210"
    INDEX 01 04:53:66
  TRACK 211 AUDIO
    TITLE "LR_black_phrase_A10_211"
    INDEX 01 04:55:55
  TRACK 212 AUDIO
    TITLE "LR_black_phrase_A10_212"
    INDEX 01 04:56:53
  TRACK 213 AUDIO
    TITLE "LR_black_phrase_A10_213"
    INDEX 01 04:58:11
  TRACK 214 AUDIO
    TITLE "LR_black_phrase_A10_214"
    INDEX 01 04:58:46
  TRACK 215 AUDIO
    TITLE "LR_black_phrase_A10_215"
    INDEX 01 05:00:74
  TRACK 216 AUDIO
    TITLE "LR_black_phrase_A10_216"
    INDEX 01 05:01:74
  TRACK 217 AUDIO
    TITLE "LR_black_phrase_A10_217"
    INDEX 01 05:03:20
  TRACK 218 AUDIO
    TITLE "LR_black_phrase_A10_218"
    INDEX 01 05:03:53
  TRACK 219 AUDIO
    TITLE "LR_black_phrase_A10_219"
    INDEX 01 05:05:40
  TRACK 220 AUDIO
    TITLE "LR_black_phrase_A10_220"
    INDEX 01 05:05:60
  TRACK 221 AUDIO
    TITLE "LR_black_phrase_A10_221"
    INDEX 01 05:07:49
  TRACK 222 AUDIO
    TITLE "LR_black_phrase_A10_222"
    INDEX 01 05:08:42
  TRACK 223 AUDIO
    TITLE "LR_black_phrase_A10_223"
    INDEX 01 05:09:63
  TRACK 224 AUDIO
    TITLE "LR_black_phrase_A10_224"
    INDEX 01 05:10:24
  TRACK 225 AUDIO
    TITLE "LR_black_phrase_A10_225"
    INDEX 01 05:12:32
  TRACK 226 AUDIO
    TITLE "LR_black_phrase_A10_226"
    INDEX 01 05:13:30
  TRACK 227 AUDIO
    TITLE "LR_black_phrase_A10_227"
    INDEX 01 05:14:70
  TRACK 228 AUDIO
    TITLE "LR_black_phrase_A10_228"
    INDEX 01 05:15:29
  TRACK 229 AUDIO
    TITLE "LR_black_phrase_A10_229"
    INDEX 01 05:17:51
  TRACK 230 AUDIO
    TITLE "LR_black_phrase_A10_230"
    INDEX 01 05:17:73
  TRACK 231 AUDIO
    TITLE "LR_black_phrase_A10_231"
    INDEX 01 05:20:20
  TRACK 232 AUDIO
    TITLE "LR_black_phrase_A10_232"
    INDEX 01 05:21:18
  TRACK 233 AUDIO
    TITLE "LR_black_phrase_A10_233"
    INDEX 01 05:22:35
  TRACK 234 AUDIO
    TITLE "LR_black_phrase_A10_234"
    INDEX 01 05:22:74
  TRACK 235 AUDIO
    TITLE "LR_black_phrase_A10_235"
    INDEX 01 05:25:29
  TRACK 236 AUDIO
    TITLE "LR_black_phrase_A10_236"
    INDEX 01 05:26:29
  TRACK 237 AUDIO
    TITLE "LR_black_phrase_A10_237"
    INDEX 01 05:28:67
  TRACK 238 AUDIO
    TITLE "LR_black_phrase_A10_238"
    INDEX 01 05:29:29
  TRACK 239 AUDIO
    TITLE "LR_black_phrase_A10_239"
    INDEX 01 05:32:12
  TRACK 240 AUDIO
    TITLE "LR_black_phrase_A10_240"
    INDEX 01 05:32:31
  TRACK 241 AUDIO
    TITLE "LR_black_phrase_A10_241"
    INDEX 01 05:35:14
  TRACK 242 AUDIO
    TITLE "LR_black_phrase_A10_242"
    INDEX 01 05:36:13
  TRACK 243 AUDIO
    TITLE "LR_black_phrase_A10_243"
    INDEX 01 05:37:26
  TRACK 244 AUDIO
    TITLE "LR_black_phrase_A10_244"
    INDEX 01 05:37:66
  TRACK 245 AUDIO
    TITLE "LR_black_phrase_A10_245"
    INDEX 01 05:39:04
  TRACK 246 AUDIO
    TITLE "LR_black_phrase_A10_246"
    INDEX 01 05:39:70
  TRACK 247 AUDIO
    TITLE "LR_black_phrase_A10_247"
    INDEX 01 05:42:12
  TRACK 248 AUDIO
    TITLE "LR_black_phrase_A10_248"
    INDEX 01 05:42:51
  TRACK 249 AUDIO
    TITLE "LR_black_phrase_A10_249"
    INDEX 01 05:44:58
  TRACK 250 AUDIO
    TITLE "LR_black_phrase_A10_250"
    INDEX 01 05:45:12
  TRACK 251 AUDIO
    TITLE "LR_black_phrase_A10_251"
    INDEX 01 05:47:21
  TRACK 252 AUDIO
    TITLE "LR_black_phrase_A10_252"
    INDEX 01 05:48:28
  TRACK 253 AUDIO
    TITLE "LR_black_phrase_A10_253"
    INDEX 01 05:49:30
  TRACK 254 AUDIO
    TITLE "LR_black_phrase_A10_254"
    INDEX 01 05:49:71
  TRACK 255 AUDIO
    TITLE "LR_black_phrase_A10_255"
    INDEX 01 05:52:18
  TRACK 256 AUDIO
    TITLE "LR_black_phrase_A10_256"
    INDEX 01 05:53:21
  TRACK 257 AUDIO
    TITLE "LR_black_phrase_A10_257"
    INDEX 01 05:55:22
  TRACK 258 AUDIO
    TITLE "LR_black_phrase_A10_258"
    INDEX 01 05:55:62
  TRACK 259 AUDIO
    TITLE "LR_black_phrase_A10_259"
    INDEX 01 05:57:55
  TRACK 260 AUDIO
    TITLE "LR_black_phrase_A10_260"
    INDEX 01 05:58:09
  TRACK 261 AUDIO
    TITLE "LR_black_phrase_A10_261"
    INDEX 01 06:00:02
  TRACK 262 AUDIO
    TITLE "LR_black_phrase_A10_262"
    INDEX 01 06:01:05
  TRACK 263 AUDIO
    TITLE "LR_black_phrase_A10_263"
    INDEX 01 06:02:44
  TRACK 264 AUDIO
    TITLE "LR_black_phrase_A10_264"
    INDEX 01 06:03:08
  TRACK 265 AUDIO
    TITLE "LR_black_phrase_A10_265"
    INDEX 01 06:04:41
  TRACK 266 AUDIO
    TITLE "LR_black_phrase_A10_266"
    INDEX 01 06:05:40
  TRACK 267 AUDIO
    TITLE "LR_black_phrase_A10_267"
    INDEX 01 06:08:01
  TRACK 268 AUDIO
    TITLE "LR_black_phrase_A10_268"
    INDEX 01 06:08:41
  TRACK 269 AUDIO
    TITLE "LR_black_phrase_A10_269"
    INDEX 01 06:11:19
  TRACK 270 AUDIO
    TITLE "LR_black_phrase_A10_270"
    INDEX 01 06:11:49
  TRACK 271 AUDIO
    TITLE "LR_black_phrase_A10_271"
    INDEX 01 06:14:26
  TRACK 272 AUDIO
    TITLE "LR_black_phrase_A10_272"
    INDEX 01 06:15:27
  TRACK 273 AUDIO
    TITLE "LR_black_phrase_A10_273"
    INDEX 01 06:16:36
  TRACK 274 AUDIO
    TITLE "LR_black_phrase_A10_274"
    INDEX 01 06:16:70
  TRACK 275 AUDIO
    TITLE "LR_black_phrase_A10_275"
    INDEX 01 06:19:33
  TRACK 276 AUDIO
    TITLE "LR_black_phrase_A10_276"
    INDEX 01 06:20:34
  TRACK 277 AUDIO
    TITLE "LR_black_phrase_A10_277"
    INDEX 01 06:22:56
  TRACK 278 AUDIO
    TITLE "LR_black_phrase_A10_278"
    INDEX 01 06:23:17
  TRACK 279 AUDIO
    TITLE "LR_black_phrase_A10_279"
    INDEX 01 06:25:37
  TRACK 280 AUDIO
    TITLE "LR_black_phrase_A10_280"
    INDEX 01 06:25:69
  TRACK 281 AUDIO
    TITLE "LR_black_phrase_A10_281"
    INDEX 01 06:28:14
  TRACK 282 AUDIO
    TITLE "LR_black_phrase_A10_282"
    INDEX 01 06:29:21
  TRACK 283 AUDIO
    TITLE "LR_black_phrase_A10_283"
    INDEX 01 06:30:29
  TRACK 284 AUDIO
    TITLE "LR_black_phrase_A10_284"
    INDEX 01 06:30:72
  TRACK 285 AUDIO
    TITLE "LR_black_phrase_A10_285"
    INDEX 01 06:33:21
  TRACK 286 AUDIO
    TITLE "LR_black_phrase_A10_286"
    INDEX 01 06:34:20
  TRACK 287 AUDIO
    TITLE "LR_black_phrase_A10_287"
    INDEX 01 06:35:67
  TRACK 288 AUDIO
    TITLE "LR_black_phrase_A10_288"
    INDEX 01 06:36:25
  TRACK 289 AUDIO
    TITLE "LR_black_phrase_A10_289"
    INDEX 01 06:38:16
  TRACK 290 AUDIO
    TITLE "LR_black_phrase_A10_290"
    INDEX 01 06:38:55
  TRACK 291 AUDIO
    TITLE "LR_black_phrase_A10_291"
    INDEX 01 06:40:48
  TRACK 292 AUDIO
    TITLE "LR_black_phrase_A10_292"
    INDEX 01 06:41:60
  TRACK 293 AUDIO
    TITLE "LR_black_phrase_A10_293"
    INDEX 01 06:42:65
  TRACK 294 AUDIO
    TITLE "LR_black_phrase_A10_294"
    INDEX 01 06:43:27
  TRACK 295 AUDIO
    TITLE "LR_black_phrase_A10_295"
    INDEX 01 06:46:12
  TRACK 296 AUDIO
    TITLE "LR_black_phrase_A10_296"
    INDEX 01 06:47:11
  TRACK 297 AUDIO
    TITLE "LR_black_phrase_A10_297"
    INDEX 01 06:49:08
  TRACK 298 AUDIO
    TITLE "LR_black_phrase_A10_298"
    INDEX 01 06:49:46
  TRACK 299 AUDIO
    TITLE "LR_black_phrase_A10_299"
    INDEX 01 06:51:37
  TRACK 300 AUDIO
    TITLE "LR_black_phrase_A10_300"
    INDEX 01 06:51:58
  TRACK 301 AUDIO
    TITLE "LR_black_phrase_A10_301"
    INDEX 01 06:53:51
